<svg width="15" height="15" viewBox="0 0 15 15" fill="none" xmlns="http://www.w3.org/2000/svg">
<path d="M7.28125 3.25C7.40625 3.0625 7.59375 3 7.8125 3C8 3 8.1875 3.0625 8.34375 3.25L14.4062 9.3125C14.5312 9.4375 14.625 9.625 14.625 9.84375C14.625 10.0312 14.5312 10.2188 14.4062 10.375L13.7188 11.0625C13.5625 11.1875 13.375 11.2812 13.1875 11.2812C12.9688 11.2812 12.7812 11.2188 12.6562 11.0938L7.8125 6.25L2.96875 11.0938C2.8125 11.2188 2.625 11.2812 2.4375 11.2812C2.21875 11.2812 2.03125 11.1875 1.90625 11.0625L1.21875 10.375C1.0625 10.2188 1 10.0312 1 9.84375C1 9.625 1.0625 9.4375 1.21875 9.3125L7.28125 3.25Z" fill="#009CA5"/>
</svg>
